<mxfile host="app.diagrams.net" agent="Mozilla/5.0 (X11; Ubuntu; Linux x86_64; rv:136.0) Gecko/20100101 Firefox/136.0" version="26.2.4">
  <diagram name="Page-1" id="UZewB1Rfb16tBjspFzAT">
    <mxGraphModel dx="1428" dy="790" grid="1" gridSize="10" guides="1" tooltips="1" connect="1" arrows="1" fold="1" page="1" pageScale="1" pageWidth="850" pageHeight="1100" math="0" shadow="0">
      <root>
        <mxCell id="0" />
        <mxCell id="1" parent="0" />
        <mxCell id="H5JhwDh2mFDXbvIwQvdT-1" value="s" style="rounded=0;whiteSpace=wrap;html=1;" vertex="1" parent="1">
          <mxGeometry x="65" y="220" width="40" height="60" as="geometry" />
        </mxCell>
        <mxCell id="H5JhwDh2mFDXbvIwQvdT-2" value="timestamp" style="rounded=0;whiteSpace=wrap;html=1;" vertex="1" parent="1">
          <mxGeometry x="105" y="220" width="320" height="60" as="geometry" />
        </mxCell>
        <mxCell id="H5JhwDh2mFDXbvIwQvdT-3" value="datacenter ID" style="rounded=0;whiteSpace=wrap;html=1;" vertex="1" parent="1">
          <mxGeometry x="425" y="220" width="80" height="60" as="geometry" />
        </mxCell>
        <mxCell id="H5JhwDh2mFDXbvIwQvdT-4" value="machine ID" style="rounded=0;whiteSpace=wrap;html=1;" vertex="1" parent="1">
          <mxGeometry x="505" y="220" width="80" height="60" as="geometry" />
        </mxCell>
        <mxCell id="H5JhwDh2mFDXbvIwQvdT-5" value="sequence number" style="rounded=0;whiteSpace=wrap;html=1;" vertex="1" parent="1">
          <mxGeometry x="585" y="220" width="200" height="60" as="geometry" />
        </mxCell>
        <mxCell id="H5JhwDh2mFDXbvIwQvdT-6" value="1 bit" style="text;html=1;align=center;verticalAlign=middle;whiteSpace=wrap;rounded=0;" vertex="1" parent="1">
          <mxGeometry x="45" y="290" width="60" height="30" as="geometry" />
        </mxCell>
        <mxCell id="H5JhwDh2mFDXbvIwQvdT-7" value="41 bits" style="text;html=1;align=center;verticalAlign=middle;whiteSpace=wrap;rounded=0;" vertex="1" parent="1">
          <mxGeometry x="235" y="290" width="60" height="30" as="geometry" />
        </mxCell>
        <mxCell id="H5JhwDh2mFDXbvIwQvdT-8" value="5 bits" style="text;html=1;align=center;verticalAlign=middle;whiteSpace=wrap;rounded=0;" vertex="1" parent="1">
          <mxGeometry x="435" y="290" width="60" height="30" as="geometry" />
        </mxCell>
        <mxCell id="H5JhwDh2mFDXbvIwQvdT-9" value="5 bits" style="text;html=1;align=center;verticalAlign=middle;whiteSpace=wrap;rounded=0;" vertex="1" parent="1">
          <mxGeometry x="515" y="290" width="60" height="30" as="geometry" />
        </mxCell>
        <mxCell id="H5JhwDh2mFDXbvIwQvdT-10" value="12 bits" style="text;html=1;align=center;verticalAlign=middle;whiteSpace=wrap;rounded=0;" vertex="1" parent="1">
          <mxGeometry x="655" y="290" width="60" height="30" as="geometry" />
        </mxCell>
      </root>
    </mxGraphModel>
  </diagram>
</mxfile>
